<svg width="277" height="49" viewBox="0 0 277 49" fill="none" xmlns="http://www.w3.org/2000/svg">
<path d="M0.613281 38V2.45312H11.1113C14.2526 2.45312 17.0358 3.15299 19.4609 4.55273C21.9023 5.95247 23.7904 7.93815 25.125 10.5098C26.4596 13.0814 27.127 16.0273 27.127 19.3477V21.1299C27.127 24.499 26.4515 27.4613 25.1006 30.0166C23.766 32.5719 21.8535 34.5413 19.3633 35.9248C16.8893 37.3083 14.0492 38 10.8428 38H0.613281ZM6.79004 7.43359V33.0684H10.8184C14.0573 33.0684 16.5394 32.0592 18.2646 30.041C20.0062 28.0065 20.8932 25.0931 20.9258 21.3008V19.3232C20.9258 15.4658 20.0876 12.5199 18.4111 10.4854C16.7347 8.45085 14.3014 7.43359 11.1113 7.43359H6.79004ZM44.3389 38.4883C40.5791 38.4883 37.5273 37.3083 35.1836 34.9482C32.8561 32.5719 31.6924 29.4144 31.6924 25.4756V24.7432C31.6924 22.1064 32.1969 19.7546 33.2061 17.6875C34.2314 15.6042 35.6637 13.9847 37.5029 12.8291C39.3421 11.6735 41.3929 11.0957 43.6553 11.0957C47.2523 11.0957 50.0273 12.2432 51.9805 14.5381C53.9499 16.833 54.9346 20.0801 54.9346 24.2793V26.6719H37.6738C37.8529 28.8529 38.5771 30.5781 39.8467 31.8477C41.1325 33.1172 42.7438 33.752 44.6807 33.752C47.3988 33.752 49.6123 32.6533 51.3213 30.4561L54.5195 33.5078C53.4616 35.0866 52.0456 36.3154 50.2715 37.1943C48.5137 38.057 46.5361 38.4883 44.3389 38.4883ZM43.6309 15.8564C42.0033 15.8564 40.6849 16.4261 39.6758 17.5654C38.6829 18.7048 38.0482 20.2917 37.7715 22.3262H49.0752V21.8867C48.945 19.901 48.416 18.4036 47.4883 17.3945C46.5605 16.3691 45.2747 15.8564 43.6309 15.8564ZM70.4131 33.752C71.8942 33.752 73.123 33.3206 74.0996 32.458C75.0762 31.5954 75.597 30.5293 75.6621 29.2598H81.2529C81.1878 30.9036 80.6751 32.4417 79.7148 33.874C78.7546 35.29 77.4525 36.4131 75.8086 37.2432C74.1647 38.0732 72.3906 38.4883 70.4863 38.4883C66.7917 38.4883 63.862 37.292 61.6973 34.8994C59.5326 32.5068 58.4502 29.2028 58.4502 24.9873V24.377C58.4502 20.3568 59.5244 17.1423 61.6729 14.7334C63.8213 12.3083 66.751 11.0957 70.4619 11.0957C73.6032 11.0957 76.1585 12.0153 78.1279 13.8545C80.1136 15.6774 81.1553 18.0781 81.2529 21.0566H75.6621C75.597 19.543 75.0762 18.2979 74.0996 17.3213C73.1393 16.3447 71.9105 15.8564 70.4131 15.8564C68.4925 15.8564 67.0114 16.5563 65.9697 17.9561C64.9281 19.3395 64.3991 21.4473 64.3828 24.2793V25.2314C64.3828 28.096 64.8955 30.2363 65.9209 31.6523C66.9626 33.0521 68.46 33.752 70.4131 33.752ZM84.6221 24.5479C84.6221 21.96 85.1348 19.6325 86.1602 17.5654C87.1855 15.4821 88.626 13.887 90.4814 12.7803C92.3369 11.6572 94.4691 11.0957 96.8779 11.0957C100.442 11.0957 103.331 12.2432 105.545 14.5381C107.775 16.833 108.979 19.8766 109.158 23.6689L109.183 25.0605C109.183 27.6647 108.678 29.9922 107.669 32.043C106.676 34.0938 105.244 35.6807 103.372 36.8037C101.517 37.9268 99.3682 38.4883 96.9268 38.4883C93.1995 38.4883 90.2129 37.2513 87.9668 34.7773C85.737 32.2871 84.6221 28.9749 84.6221 24.8408V24.5479ZM90.5547 25.0605C90.5547 27.7786 91.1162 29.9108 92.2393 31.457C93.3623 32.987 94.9248 33.752 96.9268 33.752C98.9287 33.752 100.483 32.9707 101.59 31.4082C102.713 29.8457 103.274 27.5589 103.274 24.5479C103.274 21.8786 102.697 19.7627 101.541 18.2002C100.402 16.6377 98.8473 15.8564 96.8779 15.8564C94.9411 15.8564 93.403 16.6296 92.2637 18.1758C91.1243 19.7057 90.5547 22.0007 90.5547 25.0605ZM113.089 24.5967C113.089 20.5277 114.033 17.2643 115.921 14.8066C117.809 12.3327 120.34 11.0957 123.514 11.0957C126.313 11.0957 128.576 12.0723 130.301 14.0254V0.5H136.233V38H130.862L130.569 35.2656C128.795 37.4141 126.427 38.4883 123.465 38.4883C120.372 38.4883 117.866 37.2432 115.945 34.7529C114.041 32.2627 113.089 28.8773 113.089 24.5967ZM119.021 25.1094C119.021 27.7949 119.534 29.8945 120.56 31.4082C121.601 32.9056 123.074 33.6543 124.979 33.6543C127.404 33.6543 129.178 32.5719 130.301 30.4072V19.1279C129.21 17.012 127.452 15.9541 125.027 15.9541C123.107 15.9541 121.626 16.7191 120.584 18.249C119.542 19.7627 119.021 22.0495 119.021 25.1094ZM154.056 38.4883C150.296 38.4883 147.244 37.3083 144.9 34.9482C142.573 32.5719 141.409 29.4144 141.409 25.4756V24.7432C141.409 22.1064 141.914 19.7546 142.923 17.6875C143.948 15.6042 145.381 13.9847 147.22 12.8291C149.059 11.6735 151.11 11.0957 153.372 11.0957C156.969 11.0957 159.744 12.2432 161.697 14.5381C163.667 16.833 164.651 20.0801 164.651 24.2793V26.6719H147.391C147.57 28.8529 148.294 30.5781 149.563 31.8477C150.849 33.1172 152.461 33.752 154.397 33.752C157.116 33.752 159.329 32.6533 161.038 30.4561L164.236 33.5078C163.178 35.0866 161.762 36.3154 159.988 37.1943C158.23 38.057 156.253 38.4883 154.056 38.4883ZM153.348 15.8564C151.72 15.8564 150.402 16.4261 149.393 17.5654C148.4 18.7048 147.765 20.2917 147.488 22.3262H158.792V21.8867C158.662 19.901 158.133 18.4036 157.205 17.3945C156.277 16.3691 154.992 15.8564 153.348 15.8564ZM182.303 38V2.45312H194.485C198.506 2.45312 201.565 3.25879 203.665 4.87012C205.765 6.48145 206.814 8.88216 206.814 12.0723C206.814 13.6999 206.375 15.1647 205.496 16.4668C204.617 17.7689 203.331 18.778 201.639 19.4941C203.559 20.015 205.04 20.9997 206.082 22.4482C207.14 23.8805 207.669 25.6058 207.669 27.624C207.669 30.9606 206.595 33.5241 204.446 35.3145C202.314 37.1048 199.254 38 195.267 38H182.303ZM188.479 21.96V33.0684H195.34C197.277 33.0684 198.79 32.5882 199.881 31.6279C200.971 30.6676 201.517 29.333 201.517 27.624C201.517 23.9294 199.629 22.0413 195.853 21.96H188.479ZM188.479 17.4189H194.534C196.455 17.4189 197.952 16.9876 199.026 16.125C200.117 15.2461 200.662 14.0091 200.662 12.4141C200.662 10.6562 200.158 9.38672 199.148 8.60547C198.156 7.82422 196.601 7.43359 194.485 7.43359H188.479V17.4189ZM219.583 38H213.65V0.5H219.583V38ZM224.954 24.5479C224.954 21.96 225.467 19.6325 226.492 17.5654C227.518 15.4821 228.958 13.887 230.813 12.7803C232.669 11.6572 234.801 11.0957 237.21 11.0957C240.774 11.0957 243.663 12.2432 245.877 14.5381C248.107 16.833 249.311 19.8766 249.49 23.6689L249.515 25.0605C249.515 27.6647 249.01 29.9922 248.001 32.043C247.008 34.0938 245.576 35.6807 243.704 36.8037C241.849 37.9268 239.7 38.4883 237.259 38.4883C233.532 38.4883 230.545 37.2513 228.299 34.7773C226.069 32.2871 224.954 28.9749 224.954 24.8408V24.5479ZM230.887 25.0605C230.887 27.7786 231.448 29.9108 232.571 31.457C233.694 32.987 235.257 33.752 237.259 33.752C239.261 33.752 240.815 32.9707 241.922 31.4082C243.045 29.8457 243.606 27.5589 243.606 24.5479C243.606 21.8786 243.029 19.7627 241.873 18.2002C240.734 16.6377 239.179 15.8564 237.21 15.8564C235.273 15.8564 233.735 16.6296 232.596 18.1758C231.456 19.7057 230.887 22.0007 230.887 25.0605ZM253.494 24.5967C253.494 20.4951 254.454 17.2236 256.375 14.7822C258.312 12.3245 260.875 11.0957 264.065 11.0957C267.076 11.0957 269.445 12.1455 271.17 14.2451L271.438 11.584H276.785V37.1943C276.785 40.6611 275.703 43.3955 273.538 45.3975C271.39 47.3994 268.484 48.4004 264.822 48.4004C262.885 48.4004 260.989 47.9935 259.134 47.1797C257.295 46.3822 255.895 45.3324 254.935 44.0303L257.742 40.4658C259.565 42.6305 261.811 43.7129 264.48 43.7129C266.45 43.7129 268.004 43.1758 269.144 42.1016C270.283 41.0436 270.853 39.4811 270.853 37.4141V35.6318C269.144 37.5361 266.865 38.4883 264.017 38.4883C260.924 38.4883 258.393 37.2594 256.424 34.8018C254.471 32.3441 253.494 28.9424 253.494 24.5967ZM259.402 25.1094C259.402 27.7624 259.939 29.8538 261.014 31.3838C262.104 32.8975 263.61 33.6543 265.53 33.6543C267.923 33.6543 269.697 32.6289 270.853 30.5781V18.957C269.729 16.9551 267.972 15.9541 265.579 15.9541C263.626 15.9541 262.104 16.7272 261.014 18.2734C259.939 19.8197 259.402 22.0983 259.402 25.1094Z" fill="#00A2DC"/>
</svg>
